<svg width="16px" height="16px" viewBox="0 0 16 16" xmlns="http://www.w3.org/2000/svg">
    <path d="M3.28,2.59 L3.35,2.65 L8,7.29 L12.65,2.65 C12.84,2.45 13.16,2.45 13.35,2.65 C13.53,2.82 13.55,3.09 13.41,3.28 L13.35,3.35 L8.71,8 L13.35,12.65 C13.55,12.84 13.55,13.16 13.35,13.35 C13.18,13.53 12.91,13.55 12.72,13.41 L12.65,13.35 L8,8.71 L3.35,13.35 C3.16,13.55 2.84,13.55 2.65,13.35 C2.47,13.18 2.45,12.91 2.59,12.72 L2.65,12.65 L7.29,8 L2.65,3.35 C2.45,3.16 2.45,2.84 2.65,2.65 C2.82,2.47 3.09,2.45 3.28,2.59 Z" fill="#000000" fill-rule="nonzero"/>
</svg>