<?xml version="1.0" encoding="UTF-8"?>
<svg width="16px" height="16px" viewBox="0 0 16 16" version="1.1" xmlns="http://www.w3.org/2000/svg" xmlns:xlink="http://www.w3.org/1999/xlink">
    <path d="M10,5c0.6,0,1,0.4,1,1v6c0,0.6-0.4,1-1,1H4c-0.6,0-1-0.4-1-1V6c0-0.6,0.4-1,1-1H10 M10,4H4C2.9,4,2,4.9,2,6 v6c0,1.1,0.9,2,2,2h6c1.1,0,2-0.9,2-2V6C12,4.9,11.1,4,10,4L10,4z" fill="#000000" fill-rule="nonzero"></path>
    <path d="M12,2H6C4.9,2,4,2.9,4,4h1c0-0.6,0.4-1,1-1h6c0.6,0,1,0.4,1,1v6c0,0.6-0.4,1-1,1v1c1.1,0,2-0.9,2-2V4 C14,2.9,13.1,2,12,2z" fill="#000000" fill-rule="nonzero"></path>
</svg>
