<svg t="1778522950266" class="icon" viewBox="0 0 1024 1024" version="1.1" xmlns="http://www.w3.org/2000/svg" p-id="8464" width="200" height="200"><path d="M839.594667 205.994667a85.333333 85.333333 0 0 1 0 120.704l-120.661334 120.661333 0.128 0.170667 11.946667 84.352a42.666667 42.666667 0 0 1-12.074667 36.138666l-60.373333 60.373334-30.122667-30.208-286.677333 286.634666a42.666667 42.666667 0 0 1-31.189333 12.501334l-4.992-0.426667-105.6-15.061333a42.666667 42.666667 0 0 1-35.029334-30.72l-1.194666-5.504-15.061334-105.6a42.666667 42.666667 0 0 1 8.746667-32.426667l3.328-3.754667 286.634667-286.677333-30.208-30.122667L477.44 326.826667a42.666667 42.666667 0 0 1 36.437333-12.032l85.077334 12.672-0.725334-0.768 120.661334-120.704a85.333333 85.333333 0 0 1 120.704 0z m-241.322667 362.026666l-120.704-120.661333-286.634667 286.634667 15.061334 105.6 105.6 15.061333 286.677333-286.634667z" fill="#5D6166" p-id="8465"></path><path d="M251.306667 673.664l244.992-3.669333-184.704 184.661333-105.6-15.061333-15.061334-105.6z" fill="#D8D9DF" p-id="8466"></path></svg>
