<?xml version="1.0" encoding="UTF-8"?>
<svg width="16px" height="16px" viewBox="0 0 16 16" version="1.1" xmlns="http://www.w3.org/2000/svg" xmlns:xlink="http://www.w3.org/1999/xlink">
  <path d="M9.14999157,0.393992228 L13.7078369,2.79224221 C14.4988749,3.22655272 14.9921665,4.06865299 14.9921665,4.98472696 L14.9921665,10.9996059 C14.9921665,11.9156799 14.4988749,12.7577802 13.7078369,13.1920907 L9.14999157,15.6060078 C8.42717159,16.0028639 7.55716131,16.0028639 6.83434134,15.6060078 L2.27649605,13.1920907 C1.48545805,12.7577802 0.992166452,11.9156799 0.992166452,10.9996059 L0.992166452,4.98472696 C0.992166452,4.06865299 1.48545805,3.22655272 2.27649605,2.79224221 L6.83434134,0.393992228 C7.55716131,-0.00286393927 8.42717159,-0.00286393927 9.14999157,0.393992228 Z M7.34491038,1.27050913 L2.7042344,3.66875911 C2.26202241,3.91155063 1.98625884,4.38230783 1.98625884,4.89441837 L1.98625884,11.1033597 C1.98625884,11.6154703 2.26202241,12.0862275 2.7042344,12.329019 L7.34491038,14.7429361 C7.74898662,14.9647896 8.23534629,14.9647896 8.63942253,14.7429361 L13.27338,12.329019 C13.715592,12.0862275 13.9913555,11.6154703 13.9913555,11.1033597 L13.9913555,4.89441837 C13.9913555,4.38230783 13.715592,3.91155063 13.27338,3.66875911 L8.63942253,1.27050913 C8.23534629,1.04865562 7.74898662,1.04865562 7.34491038,1.27050913 Z" id="多边形" fill-rule="nonzero" transform="translate(7.9922, 8) rotate(-270) translate(-7.9922, -8)"></path>
  <path d="M8,5 C9.65685425,5 11,6.34314575 11,8 C11,9.65685425 9.65685425,11 8,11 C6.34314575,11 5,9.65685425 5,8 C5,6.34314575 6.34314575,5 8,5 Z M8,6 C6.8954305,6 6,6.8954305 6,8 C6,9.1045695 6.8954305,10 8,10 C9.1045695,10 10,9.1045695 10,8 C10,6.8954305 9.1045695,6 8,6 Z" id="椭圆形" fill-rule="nonzero"></path>
</svg>
