<?xml version="1.0" encoding="UTF-8"?>
<svg width="16" height="16" viewBox="0 0 16 16" xmlns="http://www.w3.org/2000/svg">
  <path fill="#FFFFFF" fill-rule="nonzero" d="M2.20049956,6.90047013 C2.00413165,6.7531942 1.94693796,6.48920498 2.05301872,6.27720404 L2.10049956,6.20047013 L5.10049956,2.20047013 C5.37078427,1.84009052 5.92530077,1.9967747 5.99355954,2.41369282 L6.00049956,2.50047013 L6.00049956,14.5004701 C6.00049956,14.7766125 5.77664193,15.0004701 5.50049956,15.0004701 C5.25503967,15.0004701 5.05089119,14.823595 5.00855523,14.5903458 L5.00049956,14.5004701 L5.00049956,4.00047013 L2.90049956,6.80047013 C2.75322363,6.99683804 2.48923441,7.05403173 2.27723347,6.94795098 L2.20049956,6.90047013 Z M13.8004701,10.0995004 C13.996838,10.2467764 14.0540317,10.5107656 13.947951,10.7227665 L13.9004701,10.7995004 L10.9004701,14.7995004 C10.6301854,15.1598801 10.0756689,15.0031959 10.0074102,14.5862778 L10.0004701,14.4995004 L10.0004701,2.49950044 C10.0004701,2.22335807 10.2243278,1.99950044 10.5004701,1.99950044 C10.74593,1.99950044 10.9500785,2.1763756 10.9924145,2.40962481 L11.0004701,2.49950044 L11.0004701,12.9995004 L13.1004701,10.1995004 C13.2477461,10.0031325 13.5117353,9.94593884 13.7237362,10.0520196 L13.8004701,10.0995004 Z"/>
</svg>
