<svg xmlns="http://www.w3.org/2000/svg" xmlns:xlink="http://www.w3.org/1999/xlink" width="16" height="16" viewBox="0 0 16 16" fill="none">
<path d="M8.00001 3C8.47313 3 8.85712 3.33599 8.85712 3.74999L8.85712 12.4394L12.5367 9.21965C12.871 8.9264 13.4144 8.9264 13.7487 9.21965C14.0838 9.51215 14.0838 9.98764 13.7487 10.2801L8.60599 14.7801C8.27171 15.0733 7.7283 15.0733 7.39403 14.7801L2.25136 10.2801C1.91622 9.98764 1.91622 9.51215 2.25136 9.21965C2.58563 8.9264 3.12904 8.9264 3.46331 9.21965L7.1429 12.4394L7.1429 3.74999C7.1429 3.33599 7.52688 3 8.00001 3L8.00001 3Z"   fill="#000000" >
</path>
</svg>